<svg width="21" height="17" viewBox="0 0 21 17" xmlns="http://www.w3.org/2000/svg"><path d="M20.3995 1.70284C20.5369 1.70284 20.6743 1.61124 20.6743 1.42804V0.328842C20.6743 0.191442 20.5369 0.0540426 20.3995 0.0540426H0.430775C0.247575 0.0540426 0.155975 0.191442 0.155975 0.328842V1.42804C0.155975 1.61124 0.247575 1.70284 0.430775 1.70284H20.3995ZM20.3995 9.03082C20.5369 9.03082 20.6743 8.93922 20.6743 8.75602V7.65682C20.6743 7.51942 20.5369 7.38202 20.3995 7.38202H0.430775C0.247575 7.38202 0.155975 7.51942 0.155975 7.65682V8.75602C0.155975 8.93922 0.247575 9.03082 0.430775 9.03082H20.3995ZM20.3995 16.3588C20.5369 16.3588 20.6743 16.2672 20.6743 16.084V14.9848C20.6743 14.8474 20.5369 14.71 20.3995 14.71H0.430775C0.247575 14.71 0.155975 14.8474 0.155975 14.9848V16.084C0.155975 16.2672 0.247575 16.3588 0.430775 16.3588H20.3995Z" /></svg>
