<svg width="103" height="103" viewBox="0 0 103 103" xmlns="http://www.w3.org/2000/svg">
<path d="M98.2632 6.4501C95.6513 6.4501 93.5264 8.575 93.5264 11.1869V21.7403C91.3537 18.6555 88.859 15.8273 86.0725 13.2934C85.4547 12.7317 84.4985 12.7772 83.9369 13.3948C83.3752 14.0124 83.4205 14.9687 84.0383 15.5304C87.8858 19.029 91.1433 23.1258 93.7205 27.7066C94.0575 28.3059 94.7564 28.6019 95.4213 28.4278C96.0863 28.2536 96.5499 27.6528 96.5499 26.9654V11.1869C96.5499 10.2422 97.3185 9.47358 98.2632 9.47358C99.2079 9.47358 99.9765 10.2422 99.9765 11.1869V33.7622C99.9765 34.707 99.2079 35.4755 98.2632 35.4755H75.8159C74.8711 35.4755 74.1026 34.707 74.1026 33.7622C74.1026 32.8175 74.8711 32.0489 75.8159 32.0489H89.6412C89.6437 32.0489 89.6461 32.0485 89.6485 32.0485C89.9434 32.0788 90.25 32.0233 90.5293 31.8695C91.2608 31.467 91.5277 30.5479 91.1254 29.8162C83.1966 15.4034 68.062 6.4501 51.628 6.4501H51.5C26.6595 6.4501 6.4501 26.6595 6.4501 51.5C6.4501 52.4447 5.68153 53.2133 4.73679 53.2133C3.79205 53.2133 3.02348 52.4447 3.02348 51.5C3.02348 24.77 24.77 3.02348 51.5 3.02348C61.7613 3.02348 71.5352 6.15178 79.7655 12.0699C80.4434 12.5571 81.3881 12.4029 81.8755 11.7251C82.3629 11.0472 82.2085 10.1027 81.5306 9.61508C72.7831 3.32482 62.3987 0 51.5 0C23.1028 0 0 23.1028 0 51.5C0 54.1119 2.1249 56.2368 4.73679 56.2368C7.34868 56.2368 9.47358 54.1119 9.47358 51.5C9.47358 28.3266 28.3266 9.47358 51.5 9.47358H51.628C62.0505 9.47358 71.9117 13.335 79.4829 20.0316C79.5561 20.1519 79.6464 20.2646 79.7559 20.3644C80.7544 21.2756 81.7205 22.2474 82.627 23.2526C82.7465 23.3852 82.8848 23.4904 83.0335 23.5705C84.538 25.2606 85.9151 27.0827 87.1459 29.0252H75.8161C73.2042 29.0252 71.0793 31.1501 71.0793 33.762C71.0793 36.3739 73.2042 38.4988 75.8161 38.4988H98.2632C100.875 38.4988 103 36.3739 103 33.762V11.1867C103 8.575 100.875 6.4501 98.2632 6.4501Z" />
<path d="M98.2632 46.7632C95.6513 46.7632 93.5264 48.8881 93.5264 51.5C93.5264 74.6734 74.6734 93.5264 51.5 93.5264H51.372C42.441 93.5264 33.9132 90.7625 26.7101 85.5333C26.034 85.0425 25.0891 85.1931 24.5985 85.8685C24.1078 86.5442 24.2582 87.4895 24.9337 87.9801C32.6568 93.5865 41.7989 96.5499 51.372 96.5499H51.5C76.3405 96.5499 96.5499 76.3405 96.5499 51.5C96.5499 50.5552 97.3185 49.7867 98.2632 49.7867C99.2079 49.7867 99.9765 50.5552 99.9765 51.5C99.9765 78.23 78.23 99.9765 51.5 99.9765C42.8369 99.9765 34.3583 97.6911 26.9808 93.3674C19.6285 89.0585 13.5075 82.8085 9.27947 75.2934C8.94246 74.6943 8.24363 74.3982 7.57866 74.5724C6.9137 74.7465 6.4501 75.3474 6.4501 76.0347V91.8131C6.4501 92.7578 5.68153 93.5264 4.73679 93.5264C3.79205 93.5264 3.02348 92.7578 3.02348 91.8131V69.2377C3.02348 68.293 3.79205 67.5244 4.73679 67.5244H27.4401C28.3849 67.5244 29.1534 68.293 29.1534 69.2377C29.1534 70.1825 28.3849 70.951 27.4401 70.951H13.3588C13.3563 70.951 13.3541 70.9515 13.3519 70.9515C13.057 70.9212 12.7502 70.9767 12.4707 71.1304C11.7392 71.533 11.4723 72.4521 11.8746 73.1836C14.0231 77.0889 16.7356 80.6506 19.9366 83.7696C20.2305 84.0558 20.6111 84.1985 20.9914 84.1985C21.3849 84.1985 21.7782 84.0458 22.0745 83.7418C22.6572 83.1437 22.6447 82.1867 22.0466 81.604C19.6857 79.3037 17.6112 76.7449 15.8549 73.9745H27.4401C30.052 73.9745 32.1769 71.8496 32.1769 69.2377C32.1769 66.6259 30.052 64.501 27.4401 64.501H4.73679C2.1249 64.501 0 66.6259 0 69.2377V91.8131C0 94.425 2.1249 96.5499 4.73679 96.5499C7.34868 96.5499 9.47358 94.425 9.47358 91.8131V81.2555C13.702 87.2509 19.1509 92.2831 25.4519 95.9758C33.2928 100.571 42.2999 103 51.5 103C79.8972 103 103 79.8971 103 51.5C103 48.8881 100.875 46.7632 98.2632 46.7632Z" />
</svg>
