<svg width="120" height="120" viewBox="0 0 120 120" xmlns="http://www.w3.org/2000/svg">
<path d="M102.427 17.5734C91.0938 6.24117 76.0266 0 60 0C43.9734 0 28.9062 6.24117 17.5734 17.5734C6.24117 28.9062 0 43.9734 0 60C0 76.0266 6.24117 91.0938 17.5734 102.427C28.9062 113.759 43.9734 120 60 120C76.0266 120 91.0938 113.759 102.427 102.427C113.759 91.0938 120 76.0266 120 60C120 43.9734 113.759 28.9062 102.427 17.5734ZM60 116.484C28.8544 116.484 3.51562 91.1456 3.51562 60C3.51562 28.8544 28.8544 3.51562 60 3.51562C91.1456 3.51562 116.484 28.8544 116.484 60C116.484 91.1456 91.1456 116.484 60 116.484Z" />
<path d="M60 21.0938C38.547 21.0938 21.0938 38.547 21.0938 60C21.0938 81.453 38.547 98.9062 60 98.9062C81.453 98.9062 98.9062 81.453 98.9062 60C98.9062 38.547 81.453 21.0938 60 21.0938ZM60 95.3906C40.4855 95.3906 24.6094 79.5145 24.6094 60C24.6094 40.4855 40.4855 24.6094 60 24.6094C79.5145 24.6094 95.3906 40.4855 95.3906 60C95.3906 79.5145 79.5145 95.3906 60 95.3906Z" />
<path d="M97.4545 22.5455C87.4502 12.5409 74.1485 7.03125 60 7.03125C45.8515 7.03125 32.55 12.5412 22.5455 22.5455C12.5409 32.5498 7.03125 45.8515 7.03125 60C7.03125 72.7997 11.6597 85.1566 20.0637 94.7948C20.7016 95.5268 21.8121 95.6025 22.5438 94.9645C23.2755 94.3266 23.3515 93.2161 22.7135 92.4844C14.8678 83.4865 10.5469 71.9501 10.5469 60C10.5469 32.7314 32.7314 10.5469 60 10.5469C87.2686 10.5469 109.453 32.7314 109.453 60C109.453 87.2686 87.2686 109.453 60 109.453C48.0502 109.453 36.5135 105.132 27.5156 97.2865C26.7839 96.6488 25.6734 96.7244 25.0355 97.4562C24.3975 98.1879 24.4734 99.2984 25.2052 99.9363C34.8434 108.34 47.2005 112.969 60 112.969C74.1485 112.969 87.45 107.459 97.4545 97.4545C107.459 87.4502 112.969 74.1485 112.969 60C112.969 45.8515 107.459 32.55 97.4545 22.5455Z" />
<path d="M86.1184 56.594L41.0092 38.7266C40.3576 38.4688 39.6146 38.6226 39.1189 39.118C38.6232 39.6137 38.4695 40.3565 38.7275 41.0083L56.5949 86.1175C56.8611 86.7897 57.5103 87.228 58.2287 87.228C58.251 87.228 58.273 87.2275 58.2955 87.2266C59.0401 87.1987 59.6863 86.7041 59.9078 85.9928L64.3321 71.7885L76.7394 84.1959C77.4257 84.8826 78.5387 84.8823 79.2252 84.1959L84.197 79.2241C84.5268 78.8945 84.7119 78.4473 84.7119 77.9812C84.7119 77.515 84.5268 77.0678 84.197 76.7383L71.7896 64.3309L85.9939 59.9066C86.7053 59.6852 87.1996 59.039 87.2277 58.2944C87.2558 57.5498 86.8112 56.8684 86.1184 56.594ZM67.967 61.8393C67.3794 62.0223 66.9303 62.4993 66.7832 63.0967C66.636 63.6944 66.8117 64.3255 67.247 64.7605L80.4678 77.9814L77.9821 80.4672L64.7612 67.2463C64.4275 66.9126 63.9789 66.7314 63.5183 66.7314C63.3782 66.7314 63.2371 66.748 63.0969 66.783C62.4995 66.9302 62.0225 67.3792 61.8395 67.9668L58.0304 80.1963L43.4921 43.4919L80.1964 58.0302L67.967 61.8393Z" />
</svg>
