<svg width="16" height="16" viewBox="0 0 16 16" fill="none" xmlns="http://www.w3.org/2000/svg">
<path d="M9.43339 8.20642L14.1508 3.53483L15.1126 2.57304C15.25 2.43564 15.25 2.20664 15.1126 2.02344L14.105 1.01584C13.9218 0.87844 13.6928 0.87844 13.5554 1.01584L7.922 6.69503L2.24281 1.01584C2.10541 0.87844 1.87641 0.87844 1.69321 1.01584L0.685615 2.02344C0.548216 2.20664 0.548216 2.43564 0.685615 2.57304L6.3648 8.20642L0.685615 13.8856C0.548216 14.023 0.548216 14.252 0.685615 14.4352L1.69321 15.4428C1.87641 15.5802 2.10541 15.5802 2.24281 15.4428L7.922 9.76362L12.5936 14.481L13.5554 15.4428C13.6928 15.5802 13.9218 15.5802 14.105 15.4428L15.1126 14.4352C15.25 14.252 15.25 14.023 15.1126 13.8856L9.43339 8.20642Z" fill="white"/>
</svg>
