<svg width="122" height="122" viewBox="0 0 122 122" xmlns="http://www.w3.org/2000/svg">
<path d="M114.256 27.1781H77.6161C77.3054 24.5937 75.1008 22.5838 72.4339 22.5838H54.9005V12.4533C54.9005 11.9863 54.7075 11.5199 54.3772 11.1897L43.711 0.523504C43.3805 0.19277 42.9149 0 42.4474 0H27.104C24.6009 0 22.5645 2.03635 22.5645 4.53973V11.6758C22.5645 13.9864 26.1387 13.9864 26.1387 11.6758V4.53973C26.1387 4.00741 26.5717 3.57422 27.104 3.57422H40.6603V9.70067C40.6603 12.2038 42.6969 14.2404 45.2 14.2404H51.3265V22.5838H44.048C41.169 22.5838 38.827 24.9259 38.827 27.8048V37.6982H27.1043C26.5722 37.6982 26.139 37.2653 26.139 36.7327V20.6361C26.139 18.3255 22.5648 18.3255 22.5648 20.6361V27.1781H7.74414C3.4739 27.1781 0 30.6523 0 34.9223V96.5389C0 100.809 3.4739 104.283 7.74414 104.283H50.9726L49.0707 118.426H37.291C34.9804 118.426 34.9804 122 37.291 122H84.709C87.0196 122 87.0196 118.426 84.709 118.426H72.9293L71.0271 104.283H92.6306C94.9413 104.283 94.9413 100.709 92.6306 100.709H7.74414C5.44496 100.709 3.57422 98.8381 3.57422 96.5389V89.8368H118.426V96.5389C118.426 98.8381 116.555 100.709 114.256 100.709H103.479C101.169 100.709 101.169 104.283 103.479 104.283H114.256C118.526 104.283 122 100.809 122 96.5389V34.9223C122 30.652 118.526 27.1781 114.256 27.1781ZM45.1998 10.6662C44.6675 10.6662 44.2343 10.2332 44.2343 9.70067V6.10143L48.7988 10.6659H45.1998V10.6662ZM67.421 104.283L69.3232 118.426H52.6768L54.5788 104.283H67.421ZM62.7871 53.5718H72.4339C75.3128 53.5718 77.6549 51.2298 77.6549 48.3508V42.7086H106.291V58.5586H62.7871V53.5718ZM42.401 27.8046C42.401 26.8965 43.1399 26.1578 44.0477 26.1578H72.4339C73.342 26.1578 74.0807 26.8965 74.0807 27.8046V48.3508C74.0807 49.2589 73.3418 49.9976 72.4339 49.9976H44.0477C43.1396 49.9976 42.401 49.2589 42.401 48.3508V27.8046ZM31.0788 73.7666H16.8856C15.9775 73.7666 15.2388 73.028 15.2388 72.1199V51.5736C15.2388 50.6655 15.9777 49.9268 16.8856 49.9268H39.0705C39.7405 52.0378 41.718 53.5716 44.0477 53.5716H46.9185V72.1196C46.9185 73.0277 46.1796 73.7664 45.2718 73.7664H37.3077C36.8338 73.7664 36.3794 73.9546 36.0439 74.2899L32.8657 77.4681V75.5535C32.8659 74.5668 32.0657 73.7666 31.0788 73.7666ZM3.57422 86.2626V34.9223C3.57422 32.6231 5.44496 30.7523 7.74414 30.7523H22.5645V36.7327C22.5645 39.2359 24.6009 41.2725 27.104 41.2725H38.8267V46.3531H16.8856C14.0066 46.3531 11.6646 48.6952 11.6646 51.5741V72.1203C11.6646 74.9993 14.0066 77.3413 16.8856 77.3413H29.2914V81.7834C29.2914 83.3234 31.2084 84.1802 32.3424 83.047L38.0478 77.3413H45.2715C48.1504 77.3413 50.4925 74.9993 50.4925 72.1203V53.5723H59.2129V60.3462C59.2129 61.3331 60.0128 62.1333 61 62.1333H108.078C109.065 62.1333 109.865 61.3331 109.865 60.3462V40.9219C109.865 39.935 109.065 39.1348 108.078 39.1348H77.6549V30.7528H114.256C116.555 30.7528 118.426 32.6236 118.426 34.9227V86.2626H3.57422Z" />
<path d="M108.078 67.553H61.0003C58.6897 67.553 58.6897 71.1272 61.0003 71.1272H108.078C110.389 71.1272 110.389 67.553 108.078 67.553Z" />
<path d="M108.078 75.4668H61.0003C58.6897 75.4668 58.6897 79.041 61.0003 79.041H108.078C110.389 79.041 110.389 75.4668 108.078 75.4668Z" />
<path d="M21.8074 60.4622H40.3495C42.6601 60.4622 42.6601 56.8879 40.3495 56.8879H21.8074C19.4965 56.8879 19.4965 60.4622 21.8074 60.4622Z" />
<path d="M42.1369 65.4106C42.1369 64.4237 41.337 63.6235 40.3498 63.6235H21.8077C19.4971 63.6235 19.4971 67.1978 21.8077 67.1978H40.3498C41.3367 67.1978 42.1369 66.3976 42.1369 65.4106Z" />
<path d="M52.0739 45.7206C52.3546 45.8869 52.6696 45.9703 52.9851 45.9703C53.2801 45.9703 53.5753 45.8974 53.8429 45.7511L65.003 39.6461C65.5761 39.3328 65.9323 38.7316 65.9323 38.0782C65.9323 37.4249 65.5761 36.8239 65.003 36.5103L53.8429 30.4053C53.2891 30.1025 52.617 30.1139 52.0739 30.4358C51.5311 30.7578 51.198 31.342 51.198 31.9732V44.1832C51.198 44.8142 51.5311 45.3987 52.0739 45.7206ZM54.7722 34.988L60.4214 38.0782L54.7722 41.1685V34.988Z" />
</svg>
