<svg width="118" height="118" viewBox="0 0 118 118" xmlns="http://www.w3.org/2000/svg">
<path d="M104.165 36.3841C105.12 36.3841 105.893 35.6102 105.893 34.6556V22.6659C105.893 19.252 103.232 16.4414 99.8346 16.2676C79.334 15.2236 68.3162 6.84008 63.5731 1.93571C62.3664 0.687488 60.7423 0 59.0002 0C57.2581 0 55.6339 0.687488 54.427 1.93571C49.6839 6.84008 38.6661 15.2238 18.1653 16.2679C14.7681 16.4414 12.1067 19.252 12.1067 22.6659V70.8569C12.1067 84.7378 19.5746 97.6729 31.596 104.614L51.1522 115.903C53.5729 117.301 56.2862 118 59.0004 118C61.7137 118 64.4279 117.301 66.8479 115.903L86.4043 104.614C98.4258 97.6727 105.894 84.7378 105.894 70.8567V42.7222C105.894 41.7676 105.12 40.9937 104.165 40.9937C103.21 40.9937 102.437 41.7676 102.437 42.7222V70.8569C102.437 83.5067 95.6311 95.2944 84.6762 101.62L65.1193 112.909C61.3445 115.089 56.6558 115.089 52.881 112.909L33.3248 101.62C22.3697 95.2942 15.5642 83.5064 15.5642 70.8567V22.6657C15.5642 21.0937 16.7843 19.7998 18.3418 19.7203C40.0266 18.6161 51.8153 9.60939 56.9126 4.3388C57.4625 3.77024 58.2039 3.45703 59.0004 3.45703C59.7969 3.45703 60.5383 3.77001 61.0882 4.3388C66.1853 9.60916 77.974 18.6159 99.6588 19.7203C101.217 19.8 102.437 21.0939 102.437 22.6657V34.6551C102.436 35.6102 103.21 36.3841 104.165 36.3841Z" />
<path d="M23.1497 58.7435C22.1948 58.7435 21.4211 59.5174 21.4211 60.472V70.8574C21.4211 81.4214 27.104 91.2661 36.2525 96.5503L55.8096 107.84C56.7803 108.399 57.8838 108.695 59.0009 108.695C60.118 108.695 61.2215 108.399 62.1929 107.839L81.7496 96.55C90.8976 91.2661 96.5807 81.4214 96.5807 70.8574V29.0368C96.5807 26.9962 95.0578 25.2667 93.0395 25.0146C77.5357 23.0646 67.3363 17.1743 61.5105 12.5769C60.0334 11.4105 57.9693 11.41 56.492 12.5767C50.6658 17.1745 40.4664 23.0648 24.9641 25.0146C22.9445 25.267 21.4216 26.9962 21.4216 29.0368V52.4051C21.4216 53.3597 22.1955 54.1336 23.1501 54.1336C24.1047 54.1336 24.8786 53.3597 24.8786 52.4051V29.0368C24.8786 28.736 25.0997 28.4816 25.3937 28.4449C41.6872 26.3954 52.463 20.1603 58.634 15.2902C58.8504 15.1197 59.1523 15.1197 59.3685 15.2904C65.5393 20.1603 76.3151 26.3954 92.6097 28.4449C92.9026 28.4816 93.1237 28.736 93.1237 29.0368V70.8574C93.1237 80.1904 88.1029 88.8881 80.0213 93.556L60.4653 104.845C59.5727 105.359 58.4291 105.359 57.5377 104.845L37.9815 93.5562C29.8994 88.8881 24.8786 80.1904 24.8786 70.8574V60.472C24.8782 59.5174 24.1045 58.7435 23.1497 58.7435Z" />
<path d="M40.3748 55.641C38.1379 55.641 36.3184 57.4606 36.3184 59.6973V85.3061C36.3184 87.5428 38.1381 89.3625 40.3748 89.3625H77.6248C79.8617 89.3625 81.6813 87.5428 81.6813 85.3061V72.8094C81.6813 71.8548 80.9074 71.0808 79.9528 71.0808C78.998 71.0808 78.2243 71.8548 78.2243 72.8094V85.3061C78.2243 85.6366 77.9553 85.9053 77.6248 85.9053H40.3748C40.0443 85.9053 39.7754 85.6363 39.7754 85.3061V59.6975C39.7754 59.367 40.0443 59.0983 40.3748 59.0983H77.6248C77.9553 59.0983 78.2243 59.367 78.2243 59.6975V64.7427C78.2243 65.6973 78.9982 66.4712 79.9528 66.4712C80.9076 66.4712 81.6813 65.6973 81.6813 64.7427V59.6975C81.6813 57.7335 80.278 56.0921 78.4215 55.7208V42.9358C78.4215 32.2266 69.7089 23.5142 58.9997 23.5142C48.2905 23.5142 39.5779 32.2268 39.5779 42.9358V47.5919C39.5779 48.5465 40.3518 49.3204 41.3064 49.3204H48.7563C49.7111 49.3204 50.4848 48.5465 50.4848 47.5919V42.9358C50.4848 38.2407 54.3044 34.4211 58.9995 34.4211C63.6946 34.4211 67.5142 38.2409 67.5142 42.9358V55.6413H40.3748V55.641ZM58.9997 30.9636C52.3984 30.9636 47.0278 36.3342 47.0278 42.9355V45.8632H43.0351V42.9355C43.0351 34.1328 50.197 26.9712 58.9997 26.9712C67.8025 26.9712 74.9643 34.1328 74.9643 42.9355V55.641H70.9716V42.9355C70.9716 36.3342 65.601 30.9636 58.9997 30.9636Z" />
<path d="M59.0001 81.9125C59.9549 81.9125 60.7286 81.1386 60.7286 80.184V74.1934C63.0213 73.46 64.6864 71.3095 64.6864 68.7767C64.6864 65.6412 62.1356 63.0903 59.0001 63.0903C55.8646 63.0903 53.3137 65.6412 53.3137 68.7767C53.3137 71.3095 54.9786 73.4603 57.2716 74.1934V80.184C57.2716 81.1386 58.0452 81.9125 59.0001 81.9125ZM59.0001 66.5474C60.2292 66.5474 61.2292 67.5474 61.2292 68.7765C61.2292 70.0056 60.2292 71.0056 59.0001 71.0056C57.771 71.0056 56.771 70.0056 56.771 68.7765C56.771 67.5474 57.771 66.5474 59.0001 66.5474Z" />
</svg>
