<svg xmlns="http://www.w3.org/2000/svg" xmlns:xlink="http://www.w3.org/1999/xlink"><defs><symbol viewBox="0 0 103 103" id="apply-updates">
<path d="M98.2632 6.4501C95.6513 6.4501 93.5264 8.575 93.5264 11.1869V21.7403C91.3537 18.6555 88.859 15.8273 86.0725 13.2934C85.4547 12.7317 84.4985 12.7772 83.9369 13.3948C83.3752 14.0124 83.4205 14.9687 84.0383 15.5304C87.8858 19.029 91.1433 23.1258 93.7205 27.7066C94.0575 28.3059 94.7564 28.6019 95.4213 28.4278C96.0863 28.2536 96.5499 27.6528 96.5499 26.9654V11.1869C96.5499 10.2422 97.3185 9.47358 98.2632 9.47358C99.2079 9.47358 99.9765 10.2422 99.9765 11.1869V33.7622C99.9765 34.707 99.2079 35.4755 98.2632 35.4755H75.8159C74.8711 35.4755 74.1026 34.707 74.1026 33.7622C74.1026 32.8175 74.8711 32.0489 75.8159 32.0489H89.6412C89.6437 32.0489 89.6461 32.0485 89.6485 32.0485C89.9434 32.0788 90.25 32.0233 90.5293 31.8695C91.2608 31.467 91.5277 30.5479 91.1254 29.8162C83.1966 15.4034 68.062 6.4501 51.628 6.4501H51.5C26.6595 6.4501 6.4501 26.6595 6.4501 51.5C6.4501 52.4447 5.68153 53.2133 4.73679 53.2133C3.79205 53.2133 3.02348 52.4447 3.02348 51.5C3.02348 24.77 24.77 3.02348 51.5 3.02348C61.7613 3.02348 71.5352 6.15178 79.7655 12.0699C80.4434 12.5571 81.3881 12.4029 81.8755 11.7251C82.3629 11.0472 82.2085 10.1027 81.5306 9.61508C72.7831 3.32482 62.3987 0 51.5 0C23.1028 0 0 23.1028 0 51.5C0 54.1119 2.1249 56.2368 4.73679 56.2368C7.34868 56.2368 9.47358 54.1119 9.47358 51.5C9.47358 28.3266 28.3266 9.47358 51.5 9.47358H51.628C62.0505 9.47358 71.9117 13.335 79.4829 20.0316C79.5561 20.1519 79.6464 20.2646 79.7559 20.3644C80.7544 21.2756 81.7205 22.2474 82.627 23.2526C82.7465 23.3852 82.8848 23.4904 83.0335 23.5705C84.538 25.2606 85.9151 27.0827 87.1459 29.0252H75.8161C73.2042 29.0252 71.0793 31.1501 71.0793 33.762C71.0793 36.3739 73.2042 38.4988 75.8161 38.4988H98.2632C100.875 38.4988 103 36.3739 103 33.762V11.1867C103 8.575 100.875 6.4501 98.2632 6.4501Z" />
<path d="M98.2632 46.7632C95.6513 46.7632 93.5264 48.8881 93.5264 51.5C93.5264 74.6734 74.6734 93.5264 51.5 93.5264H51.372C42.441 93.5264 33.9132 90.7625 26.7101 85.5333C26.034 85.0425 25.0891 85.1931 24.5985 85.8685C24.1078 86.5442 24.2582 87.4895 24.9337 87.9801C32.6568 93.5865 41.7989 96.5499 51.372 96.5499H51.5C76.3405 96.5499 96.5499 76.3405 96.5499 51.5C96.5499 50.5552 97.3185 49.7867 98.2632 49.7867C99.2079 49.7867 99.9765 50.5552 99.9765 51.5C99.9765 78.23 78.23 99.9765 51.5 99.9765C42.8369 99.9765 34.3583 97.6911 26.9808 93.3674C19.6285 89.0585 13.5075 82.8085 9.27947 75.2934C8.94246 74.6943 8.24363 74.3982 7.57866 74.5724C6.9137 74.7465 6.4501 75.3474 6.4501 76.0347V91.8131C6.4501 92.7578 5.68153 93.5264 4.73679 93.5264C3.79205 93.5264 3.02348 92.7578 3.02348 91.8131V69.2377C3.02348 68.293 3.79205 67.5244 4.73679 67.5244H27.4401C28.3849 67.5244 29.1534 68.293 29.1534 69.2377C29.1534 70.1825 28.3849 70.951 27.4401 70.951H13.3588C13.3563 70.951 13.3541 70.9515 13.3519 70.9515C13.057 70.9212 12.7502 70.9767 12.4707 71.1304C11.7392 71.533 11.4723 72.4521 11.8746 73.1836C14.0231 77.0889 16.7356 80.6506 19.9366 83.7696C20.2305 84.0558 20.6111 84.1985 20.9914 84.1985C21.3849 84.1985 21.7782 84.0458 22.0745 83.7418C22.6572 83.1437 22.6447 82.1867 22.0466 81.604C19.6857 79.3037 17.6112 76.7449 15.8549 73.9745H27.4401C30.052 73.9745 32.1769 71.8496 32.1769 69.2377C32.1769 66.6259 30.052 64.501 27.4401 64.501H4.73679C2.1249 64.501 0 66.6259 0 69.2377V91.8131C0 94.425 2.1249 96.5499 4.73679 96.5499C7.34868 96.5499 9.47358 94.425 9.47358 91.8131V81.2555C13.702 87.2509 19.1509 92.2831 25.4519 95.9758C33.2928 100.571 42.2999 103 51.5 103C79.8972 103 103 79.8971 103 51.5C103 48.8881 100.875 46.7632 98.2632 46.7632Z" />
</symbol><symbol viewBox="0 0 448 512" id="arrow-right"><path d="M254.544 154.427L320.118 220H24c-13.255 0-24 10.745-24 24v24c0 13.255 10.745 24 24 24h296.118l-65.574 65.573c-9.373 9.373-9.373 24.569 0 33.941l16.971 16.971c9.373 9.373 24.569 9.373 33.941 0L440.97 272.97c9.373-9.373 9.373-24.569 0-33.941L305.456 103.515c-9.373-9.373-24.569-9.373-33.941 0l-16.971 16.971c-9.373 9.372-9.373 24.568 0 33.941z" /></symbol><symbol viewBox="0 0 448 512" id="book"><path d="M128 152v-32c0-4.4 3.6-8 8-8h208c4.4 0 8 3.6 8 8v32c0 4.4-3.6 8-8 8H136c-4.4 0-8-3.6-8-8zm8 88h208c4.4 0 8-3.6 8-8v-32c0-4.4-3.6-8-8-8H136c-4.4 0-8 3.6-8 8v32c0 4.4 3.6 8 8 8zm299.1 159.7c-4.2 13-4.2 51.6 0 64.6 7.3 1.4 12.9 7.9 12.9 15.7v16c0 8.8-7.2 16-16 16H80c-44.2 0-80-35.8-80-80V80C0 35.8 35.8 0 80 0h352c8.8 0 16 7.2 16 16v368c0 7.8-5.5 14.2-12.9 15.7zm-41.1.3H80c-17.6 0-32 14.4-32 32 0 17.7 14.3 32 32 32h314c-2.7-17.3-2.7-46.7 0-64zm6-352H80c-17.7 0-32 14.3-32 32v278.7c9.8-4.3 20.6-6.7 32-6.7h320V48z" /></symbol><symbol viewBox="0 0 448 512" id="calendar"><path d="M400 64h-48V12c0-6.627-5.373-12-12-12h-8c-6.627 0-12 5.373-12 12v52H128V12c0-6.627-5.373-12-12-12h-8c-6.627 0-12 5.373-12 12v52H48C21.49 64 0 85.49 0 112v352c0 26.51 21.49 48 48 48h352c26.51 0 48-21.49 48-48V112c0-26.51-21.49-48-48-48zM48 96h352c8.822 0 16 7.178 16 16v48H32v-48c0-8.822 7.178-16 16-16zm352 384H48c-8.822 0-16-7.178-16-16V192h384v272c0 8.822-7.178 16-16 16z" /></symbol><symbol viewBox="0 0 512 512" id="check"><path fill="#fff" d="M173.898 439.404l-166.4-166.4c-9.997-9.997-9.997-26.206 0-36.204l36.203-36.204c9.997-9.998 26.207-9.998 36.204 0L192 312.69 432.095 72.596c9.997-9.997 26.207-9.997 36.204 0l36.203 36.204c9.997 9.997 9.997 26.206 0 36.204l-294.4 294.401c-9.998 9.997-26.207 9.997-36.204-.001z" /></symbol><symbol viewBox="0 0 320 512" id="chevron-left"><path d="M34.52 239.03L228.87 44.69c9.37-9.37 24.57-9.37 33.94 0l22.67 22.67c9.36 9.36 9.37 24.52.04 33.9L131.49 256l154.02 154.75c9.34 9.38 9.32 24.54-.04 33.9l-22.67 22.67c-9.37 9.37-24.57 9.37-33.94 0L34.52 272.97c-9.37-9.37-9.37-24.57 0-33.94z" /></symbol><symbol viewBox="0 0 320 512" id="chevron-right"><path d="M285.476 272.971L91.132 467.314c-9.373 9.373-24.569 9.373-33.941 0l-22.667-22.667c-9.357-9.357-9.375-24.522-.04-33.901L188.505 256 34.484 101.255c-9.335-9.379-9.317-24.544.04-33.901l22.667-22.667c9.373-9.373 24.569-9.373 33.941 0L285.475 239.03c9.373 9.372 9.373 24.568.001 33.941z" /></symbol><symbol viewBox="0 0 120 120" id="click-with-caution">
<path d="M102.427 17.5734C91.0938 6.24117 76.0266 0 60 0C43.9734 0 28.9062 6.24117 17.5734 17.5734C6.24117 28.9062 0 43.9734 0 60C0 76.0266 6.24117 91.0938 17.5734 102.427C28.9062 113.759 43.9734 120 60 120C76.0266 120 91.0938 113.759 102.427 102.427C113.759 91.0938 120 76.0266 120 60C120 43.9734 113.759 28.9062 102.427 17.5734ZM60 116.484C28.8544 116.484 3.51562 91.1456 3.51562 60C3.51562 28.8544 28.8544 3.51562 60 3.51562C91.1456 3.51562 116.484 28.8544 116.484 60C116.484 91.1456 91.1456 116.484 60 116.484Z" />
<path d="M60 21.0938C38.547 21.0938 21.0938 38.547 21.0938 60C21.0938 81.453 38.547 98.9062 60 98.9062C81.453 98.9062 98.9062 81.453 98.9062 60C98.9062 38.547 81.453 21.0938 60 21.0938ZM60 95.3906C40.4855 95.3906 24.6094 79.5145 24.6094 60C24.6094 40.4855 40.4855 24.6094 60 24.6094C79.5145 24.6094 95.3906 40.4855 95.3906 60C95.3906 79.5145 79.5145 95.3906 60 95.3906Z" />
<path d="M97.4545 22.5455C87.4502 12.5409 74.1485 7.03125 60 7.03125C45.8515 7.03125 32.55 12.5412 22.5455 22.5455C12.5409 32.5498 7.03125 45.8515 7.03125 60C7.03125 72.7997 11.6597 85.1566 20.0637 94.7948C20.7016 95.5268 21.8121 95.6025 22.5438 94.9645C23.2755 94.3266 23.3515 93.2161 22.7135 92.4844C14.8678 83.4865 10.5469 71.9501 10.5469 60C10.5469 32.7314 32.7314 10.5469 60 10.5469C87.2686 10.5469 109.453 32.7314 109.453 60C109.453 87.2686 87.2686 109.453 60 109.453C48.0502 109.453 36.5135 105.132 27.5156 97.2865C26.7839 96.6488 25.6734 96.7244 25.0355 97.4562C24.3975 98.1879 24.4734 99.2984 25.2052 99.9363C34.8434 108.34 47.2005 112.969 60 112.969C74.1485 112.969 87.45 107.459 97.4545 97.4545C107.459 87.4502 112.969 74.1485 112.969 60C112.969 45.8515 107.459 32.55 97.4545 22.5455Z" />
<path d="M86.1184 56.594L41.0092 38.7266C40.3576 38.4688 39.6146 38.6226 39.1189 39.118C38.6232 39.6137 38.4695 40.3565 38.7275 41.0083L56.5949 86.1175C56.8611 86.7897 57.5103 87.228 58.2287 87.228C58.251 87.228 58.273 87.2275 58.2955 87.2266C59.0401 87.1987 59.6863 86.7041 59.9078 85.9928L64.3321 71.7885L76.7394 84.1959C77.4257 84.8826 78.5387 84.8823 79.2252 84.1959L84.197 79.2241C84.5268 78.8945 84.7119 78.4473 84.7119 77.9812C84.7119 77.515 84.5268 77.0678 84.197 76.7383L71.7896 64.3309L85.9939 59.9066C86.7053 59.6852 87.1996 59.039 87.2277 58.2944C87.2558 57.5498 86.8112 56.8684 86.1184 56.594ZM67.967 61.8393C67.3794 62.0223 66.9303 62.4993 66.7832 63.0967C66.636 63.6944 66.8117 64.3255 67.247 64.7605L80.4678 77.9814L77.9821 80.4672L64.7612 67.2463C64.4275 66.9126 63.9789 66.7314 63.5183 66.7314C63.3782 66.7314 63.2371 66.748 63.0969 66.783C62.4995 66.9302 62.0225 67.3792 61.8395 67.9668L58.0304 80.1963L43.4921 43.4919L80.1964 58.0302L67.967 61.8393Z" />
</symbol><symbol viewBox="0 0 512 512" id="clock"><path d="M256 8C119 8 8 119 8 256s111 248 248 248 248-111 248-248S393 8 256 8zm216 248c0 118.7-96.1 216-216 216-118.7 0-216-96.1-216-216 0-118.7 96.1-216 216-216 118.7 0 216 96.1 216 216zm-148.9 88.3l-81.2-59c-3.1-2.3-4.9-5.9-4.9-9.7V116c0-6.6 5.4-12 12-12h14c6.6 0 12 5.4 12 12v146.3l70.5 51.3c5.4 3.9 6.5 11.4 2.6 16.8l-8.2 11.3c-3.9 5.3-11.4 6.5-16.8 2.6z" /></symbol><symbol viewBox="0 0 16 16" id="close"><path d="M9.43339 8.20642L14.1508 3.53483L15.1126 2.57304C15.25 2.43564 15.25 2.20664 15.1126 2.02344L14.105 1.01584C13.9218 0.87844 13.6928 0.87844 13.5554 1.01584L7.922 6.69503L2.24281 1.01584C2.10541 0.87844 1.87641 0.87844 1.69321 1.01584L0.685615 2.02344C0.548216 2.20664 0.548216 2.43564 0.685615 2.57304L6.3648 8.20642L0.685615 13.8856C0.548216 14.023 0.548216 14.252 0.685615 14.4352L1.69321 15.4428C1.87641 15.5802 2.10541 15.5802 2.24281 15.4428L7.922 9.76362L12.5936 14.481L13.5554 15.4428C13.6928 15.5802 13.9218 15.5802 14.105 15.4428L15.1126 14.4352C15.25 14.252 15.25 14.023 15.1126 13.8856L9.43339 8.20642Z" /></symbol><symbol viewBox="0 0 512 512" id="close-circle"><path d="M256 8C119 8 8 119 8 256s111 248 248 248 248-111 248-248S393 8 256 8zm121.6 313.1c4.7 4.7 4.7 12.3 0 17L338 377.6c-4.7 4.7-12.3 4.7-17 0L256 312l-65.1 65.6c-4.7 4.7-12.3 4.7-17 0L134.4 338c-4.7-4.7-4.7-12.3 0-17l65.6-65-65.6-65.1c-4.7-4.7-4.7-12.3 0-17l39.6-39.6c4.7-4.7 12.3-4.7 17 0l65 65.7 65.1-65.6c4.7-4.7 12.3-4.7 17 0l39.6 39.6c4.7 4.7 4.7 12.3 0 17L312 256l65.6 65.1z" /></symbol><symbol viewBox="0 0 264 512" id="facebook"><path d="M76.7 512V283H0v-91h76.7v-71.7C76.7 42.4 124.3 0 193.8 0c33.3 0 61.9 2.5 70.2 3.6V85h-48.2c-37.8 0-45.1 18-45.1 44.3V192H256l-11.7 91h-73.6v229" /></symbol><symbol viewBox="0 0 496 512" id="globe"><path d="M248 8C111.03 8 0 119.03 0 256s111.03 248 248 248 248-111.03 248-248S384.97 8 248 8zm215.72 253.45l-42.82-10.71c-1.97-.5-3.66-1.67-4.75-3.33l-17.97-26.97a8.05 8.05 0 0 1 0-8.88l19.59-29.39c.78-1.16 1.81-2.09 3.06-2.7l23.97-11.99C457.03 194.53 464 224.44 464 256c0 1.84-.23 3.62-.28 5.45zM32 256c0-11.92 1.22-23.53 3.09-34.93 7.16 10.6 14.52 21.46 19.91 29.36 5.88 8.67 12.81 16.61 21.38 24.34 10.72 9.69 22.56 17.83 35.16 24.16 13.81 6.97 34.06 17.95 48.28 25.83 5.03 2.8 8.19 8.16 8.19 13.97v32.02c0 12.81 5 24.88 14.06 33.94 12.66 12.66 18.91 31.67 17.94 39.94v21.81C103.95 444.53 32 358.59 32 256zm199.92 215.19l-.08-24.44c2.5-18.58-9.44-46.98-27.16-64.69-2.97-2.98-4.69-7.11-4.69-11.31v-32.02c0-17.47-9.47-33.55-24.72-41.97-14.5-8.03-35.19-19.27-49.34-26.41-10.06-5.05-19.53-11.56-28.94-20.05a100.36 100.36 0 0 1-15.56-17.89c-9.66-14.19-25.54-37.72-35.4-52.35 25.98-68.87 85.98-121.14 159.56-135.85L257.38 96l-15.03 15.03c-9.03 9.03-9.34 23.53-.94 32.94l-5.72.03c-6.25 0-12.19 2.41-16.72 6.8l-9.91 9.64c-7.56 7.3-9.47 18.53-4.75 27.95l4 7.98c-6.94-2.75-14.78-3.12-22.03-.66l-31.19 10.39A27.893 27.893 0 0 0 136 232.6c0 10.66 5.91 20.23 15.44 25l11.09 5.55c10.72 5.36 22.62 8.38 34.62 8.8 2.38 2.3 6.25 7.56 8.69 10.89 5.91 8.08 11.5 15.72 19 19.47l3.38 1.69h70.53c4.22 0 8.34 1.7 11.31 4.69l13.69 13.69a14.66 14.66 0 0 1 4.25 10.27c0 8.05-3.28 15.92-9.06 21.66l-11.34 11.33a39.93 39.93 0 0 0-10.25 17.88l-1.12 4.41c-.94 3.69-1.84 7.38-3.19 11l-26.78 72.17c-6.03.51-12.09.92-18.25.92-5.44-.02-10.76-.44-16.09-.83zm70.82-6.49L323 410.09c1.78-4.7 3.03-9.53 4.25-14.36l1.03-4.05c.34-1.31 1.06-2.55 4.09-5.58l9.19-9.16c11.72-11.64 18.44-27.8 18.44-44.31 0-12.25-4.97-24.23-13.62-32.89l-13.69-13.69c-8.94-8.94-21.31-14.06-33.94-14.06h-60.94c-1.91-2.23-4.34-5.59-6.16-8.06C223.44 252.72 214.12 240 200 240c-8 0-16-1.89-23.16-5.47l-2.34-1.17 21.91-7.3 9.28 8.06c4.38 3.78 9.94 5.88 15.72 5.88h5.66c8.38 0 16-4.25 20.41-11.39 4.41-7.12 4.81-15.86 1.06-23.34l-12.97-25.95 3.38-3.31h5.75c6.41 0 12.44-2.5 16.97-7.03l8-8c9.03-9.03 9.34-23.53.94-32.94l9.41-9.41c6.03-6.05 9.38-14.08 9.38-22.62s-3.34-16.58-9.38-22.62l-33.31-33.31c.44 0 .87-.07 1.31-.07 76.13 0 143.04 39.68 181.52 99.35l-22.98 11.49a39.974 39.974 0 0 0-15.38 13.58l-19.59 29.39c-9 13.48-9 30.89 0 44.38l17.97 26.97c5.53 8.28 13.88 14.17 23.59 16.61l47.38 11.84c-14.72 83.15-77.04 149.87-157.79 171.08z" /></symbol><symbol viewBox="0 0 448 512" id="instagram"><path d="M224.1 141c-63.6 0-114.9 51.3-114.9 114.9s51.3 114.9 114.9 114.9S339 319.5 339 255.9 287.7 141 224.1 141zm0 189.6c-41.1 0-74.7-33.5-74.7-74.7s33.5-74.7 74.7-74.7 74.7 33.5 74.7 74.7-33.6 74.7-74.7 74.7zm146.4-194.3c0 14.9-12 26.8-26.8 26.8-14.9 0-26.8-12-26.8-26.8s12-26.8 26.8-26.8 26.8 12 26.8 26.8zm76.1 27.2c-1.7-35.9-9.9-67.7-36.2-93.9-26.2-26.2-58-34.4-93.9-36.2-37-2.1-147.9-2.1-184.9 0-35.8 1.7-67.6 9.9-93.9 36.1s-34.4 58-36.2 93.9c-2.1 37-2.1 147.9 0 184.9 1.7 35.9 9.9 67.7 36.2 93.9s58 34.4 93.9 36.2c37 2.1 147.9 2.1 184.9 0 35.9-1.7 67.7-9.9 93.9-36.2 26.2-26.2 34.4-58 36.2-93.9 2.1-37 2.1-147.8 0-184.8zM398.8 388c-7.8 19.6-22.9 34.7-42.6 42.6-29.5 11.7-99.5 9-132.1 9s-102.7 2.6-132.1-9c-19.6-7.8-34.7-22.9-42.6-42.6-11.7-29.5-9-99.5-9-132.1s-2.6-102.7 9-132.1c7.8-19.6 22.9-34.7 42.6-42.6 29.5-11.7 99.5-9 132.1-9s102.7-2.6 132.1 9c19.6 7.8 34.7 22.9 42.6 42.6 11.7 29.5 9 99.5 9 132.1s2.7 102.7-9 132.1z" /></symbol><symbol viewBox="0 0 122 122" id="know-your-risk">
<path d="M114.256 27.1781H77.6161C77.3054 24.5937 75.1008 22.5838 72.4339 22.5838H54.9005V12.4533C54.9005 11.9863 54.7075 11.5199 54.3772 11.1897L43.711 0.523504C43.3805 0.19277 42.9149 0 42.4474 0H27.104C24.6009 0 22.5645 2.03635 22.5645 4.53973V11.6758C22.5645 13.9864 26.1387 13.9864 26.1387 11.6758V4.53973C26.1387 4.00741 26.5717 3.57422 27.104 3.57422H40.6603V9.70067C40.6603 12.2038 42.6969 14.2404 45.2 14.2404H51.3265V22.5838H44.048C41.169 22.5838 38.827 24.9259 38.827 27.8048V37.6982H27.1043C26.5722 37.6982 26.139 37.2653 26.139 36.7327V20.6361C26.139 18.3255 22.5648 18.3255 22.5648 20.6361V27.1781H7.74414C3.4739 27.1781 0 30.6523 0 34.9223V96.5389C0 100.809 3.4739 104.283 7.74414 104.283H50.9726L49.0707 118.426H37.291C34.9804 118.426 34.9804 122 37.291 122H84.709C87.0196 122 87.0196 118.426 84.709 118.426H72.9293L71.0271 104.283H92.6306C94.9413 104.283 94.9413 100.709 92.6306 100.709H7.74414C5.44496 100.709 3.57422 98.8381 3.57422 96.5389V89.8368H118.426V96.5389C118.426 98.8381 116.555 100.709 114.256 100.709H103.479C101.169 100.709 101.169 104.283 103.479 104.283H114.256C118.526 104.283 122 100.809 122 96.5389V34.9223C122 30.652 118.526 27.1781 114.256 27.1781ZM45.1998 10.6662C44.6675 10.6662 44.2343 10.2332 44.2343 9.70067V6.10143L48.7988 10.6659H45.1998V10.6662ZM67.421 104.283L69.3232 118.426H52.6768L54.5788 104.283H67.421ZM62.7871 53.5718H72.4339C75.3128 53.5718 77.6549 51.2298 77.6549 48.3508V42.7086H106.291V58.5586H62.7871V53.5718ZM42.401 27.8046C42.401 26.8965 43.1399 26.1578 44.0477 26.1578H72.4339C73.342 26.1578 74.0807 26.8965 74.0807 27.8046V48.3508C74.0807 49.2589 73.3418 49.9976 72.4339 49.9976H44.0477C43.1396 49.9976 42.401 49.2589 42.401 48.3508V27.8046ZM31.0788 73.7666H16.8856C15.9775 73.7666 15.2388 73.028 15.2388 72.1199V51.5736C15.2388 50.6655 15.9777 49.9268 16.8856 49.9268H39.0705C39.7405 52.0378 41.718 53.5716 44.0477 53.5716H46.9185V72.1196C46.9185 73.0277 46.1796 73.7664 45.2718 73.7664H37.3077C36.8338 73.7664 36.3794 73.9546 36.0439 74.2899L32.8657 77.4681V75.5535C32.8659 74.5668 32.0657 73.7666 31.0788 73.7666ZM3.57422 86.2626V34.9223C3.57422 32.6231 5.44496 30.7523 7.74414 30.7523H22.5645V36.7327C22.5645 39.2359 24.6009 41.2725 27.104 41.2725H38.8267V46.3531H16.8856C14.0066 46.3531 11.6646 48.6952 11.6646 51.5741V72.1203C11.6646 74.9993 14.0066 77.3413 16.8856 77.3413H29.2914V81.7834C29.2914 83.3234 31.2084 84.1802 32.3424 83.047L38.0478 77.3413H45.2715C48.1504 77.3413 50.4925 74.9993 50.4925 72.1203V53.5723H59.2129V60.3462C59.2129 61.3331 60.0128 62.1333 61 62.1333H108.078C109.065 62.1333 109.865 61.3331 109.865 60.3462V40.9219C109.865 39.935 109.065 39.1348 108.078 39.1348H77.6549V30.7528H114.256C116.555 30.7528 118.426 32.6236 118.426 34.9227V86.2626H3.57422Z" />
<path d="M108.078 67.553H61.0003C58.6897 67.553 58.6897 71.1272 61.0003 71.1272H108.078C110.389 71.1272 110.389 67.553 108.078 67.553Z" />
<path d="M108.078 75.4668H61.0003C58.6897 75.4668 58.6897 79.041 61.0003 79.041H108.078C110.389 79.041 110.389 75.4668 108.078 75.4668Z" />
<path d="M21.8074 60.4622H40.3495C42.6601 60.4622 42.6601 56.8879 40.3495 56.8879H21.8074C19.4965 56.8879 19.4965 60.4622 21.8074 60.4622Z" />
<path d="M42.1369 65.4106C42.1369 64.4237 41.337 63.6235 40.3498 63.6235H21.8077C19.4971 63.6235 19.4971 67.1978 21.8077 67.1978H40.3498C41.3367 67.1978 42.1369 66.3976 42.1369 65.4106Z" />
<path d="M52.0739 45.7206C52.3546 45.8869 52.6696 45.9703 52.9851 45.9703C53.2801 45.9703 53.5753 45.8974 53.8429 45.7511L65.003 39.6461C65.5761 39.3328 65.9323 38.7316 65.9323 38.0782C65.9323 37.4249 65.5761 36.8239 65.003 36.5103L53.8429 30.4053C53.2891 30.1025 52.617 30.1139 52.0739 30.4358C51.5311 30.7578 51.198 31.342 51.198 31.9732V44.1832C51.198 44.8142 51.5311 45.3987 52.0739 45.7206ZM54.7722 34.988L60.4214 38.0782L54.7722 41.1685V34.988Z" />
</symbol><symbol viewBox="0 0 21 17" id="menu"><path d="M20.3995 1.70284C20.5369 1.70284 20.6743 1.61124 20.6743 1.42804V0.328842C20.6743 0.191442 20.5369 0.0540426 20.3995 0.0540426H0.430775C0.247575 0.0540426 0.155975 0.191442 0.155975 0.328842V1.42804C0.155975 1.61124 0.247575 1.70284 0.430775 1.70284H20.3995ZM20.3995 9.03082C20.5369 9.03082 20.6743 8.93922 20.6743 8.75602V7.65682C20.6743 7.51942 20.5369 7.38202 20.3995 7.38202H0.430775C0.247575 7.38202 0.155975 7.51942 0.155975 7.65682V8.75602C0.155975 8.93922 0.247575 9.03082 0.430775 9.03082H20.3995ZM20.3995 16.3588C20.5369 16.3588 20.6743 16.2672 20.6743 16.084V14.9848C20.6743 14.8474 20.5369 14.71 20.3995 14.71H0.430775C0.247575 14.71 0.155975 14.8474 0.155975 14.9848V16.084C0.155975 16.2672 0.247575 16.3588 0.430775 16.3588H20.3995Z" /></symbol><symbol viewBox="0 0 512 512" id="mic"><path d="M475.78 33.5a122.38 122.38 0 0 0-170.45 2.13l-28.77 28.68a121 121 0 0 0-35.66 85.08L12.06 406.85a47.88 47.88 0 0 0 2 65.71l25.46 25.38a48.27 48.27 0 0 0 65.93 2l150.42-133.6V504a8 8 0 0 0 8 8H280a8 8 0 0 0 8-8V338l75.85-66.08a121.82 121.82 0 0 0 85.37-35.54l25.09-25C523 162.86 525.64 80.79 475.78 33.5zM84.25 476a16.08 16.08 0 0 1-22-.68l-25.44-25.39a16 16 0 0 1-.72-21.86l219.39-246.83 76.4 76.13zM426.5 213.74a89.56 89.56 0 0 1-62.92 26.17h-3.8L273 153.42v-3.78a88.92 88.92 0 0 1 26.27-62.7l11.06-11 127.24 126.77zm33.28-34.14L333.52 53.77A89.34 89.34 0 0 1 459.78 179.6z" /></symbol><symbol viewBox="0 0 384 512" id="pin"><path d="M192 96c-52.935 0-96 43.065-96 96s43.065 96 96 96 96-43.065 96-96-43.065-96-96-96zm0 160c-35.29 0-64-28.71-64-64s28.71-64 64-64 64 28.71 64 64-28.71 64-64 64zm0-256C85.961 0 0 85.961 0 192c0 77.413 26.97 99.031 172.268 309.67 9.534 13.772 29.929 13.774 39.465 0C357.03 291.031 384 269.413 384 192 384 85.961 298.039 0 192 0zm0 473.931C52.705 272.488 32 256.494 32 192c0-42.738 16.643-82.917 46.863-113.137S149.262 32 192 32s82.917 16.643 113.137 46.863S352 149.262 352 192c0 64.49-20.692 80.47-160 281.931z" /></symbol><symbol viewBox="0 0 12 16" fill="currentColor" id="report">
<path d="M7 4.25V0H0.75C0.3125 0 0 0.34375 0 0.75V15.25C0 15.6875 0.3125 16 0.75 16H11.25C11.6562 16 12 15.6875 12 15.25V5H7.75C7.3125 5 7 4.6875 7 4.25ZM9 11.625C9 11.8438 8.8125 12 8.625 12H3.375C3.15625 12 3 11.8438 3 11.625V11.375C3 11.1875 3.15625 11 3.375 11H8.625C8.8125 11 9 11.1875 9 11.375V11.625ZM9 9.625C9 9.84375 8.8125 10 8.625 10H3.375C3.15625 10 3 9.84375 3 9.625V9.375C3 9.1875 3.15625 9 3.375 9H8.625C8.8125 9 9 9.1875 9 9.375V9.625ZM9 7.375V7.625C9 7.84375 8.8125 8 8.625 8H3.375C3.15625 8 3 7.84375 3 7.625V7.375C3 7.1875 3.15625 7 3.375 7H8.625C8.8125 7 9 7.1875 9 7.375ZM12 3.8125C12 3.625 11.9062 3.4375 11.7812 3.28125L8.71875 0.21875C8.5625 0.09375 8.375 0 8.1875 0H8V4H12V3.8125Z" fill="white" />
</symbol><symbol viewBox="0 0 24 24" id="search"><path d="M16.7 14.95H15.6L15.2 14.55C16.5 13.05 17.3 11.05 17.3 8.95C17.3 4.15 13.4 0.25 8.6 0.25C3.8 0.25 0 4.15 0 8.95C0 13.75 3.9 17.65 8.7 17.65C10.8 17.65 12.8 16.85 14.3 15.55L14.7 15.95V17.05L21.4 23.75L23.4 21.75L16.7 14.95ZM8.7 14.95C5.4 14.95 2.7 12.25 2.7 8.95C2.7 5.65 5.4 2.95 8.7 2.95C12 2.95 14.7 5.65 14.7 8.95C14.7 12.25 12 14.95 8.7 14.95Z" /></symbol><symbol viewBox="0 0 24 24" id="search-white"><path fill="white" d="M16.7 14.95H15.6L15.2 14.55C16.5 13.05 17.3 11.05 17.3 8.95C17.3 4.15 13.4 0.25 8.6 0.25C3.8 0.25 0 4.15 0 8.95C0 13.75 3.9 17.65 8.7 17.65C10.8 17.65 12.8 16.85 14.3 15.55L14.7 15.95V17.05L21.4 23.75L23.4 21.75L16.7 14.95ZM8.7 14.95C5.4 14.95 2.7 12.25 2.7 8.95C2.7 5.65 5.4 2.95 8.7 2.95C12 2.95 14.7 5.65 14.7 8.95C14.7 12.25 12 14.95 8.7 14.95Z" /></symbol><symbol aria-hidden="true" class="svg-inline--fa fa-tag fa-w-16" role="img" viewBox="0 0 512 512" id="tag"><path fill="currentColor" d="M0 252.118V48C0 21.49 21.49 0 48 0h204.118a48 48 0 0 1 33.941 14.059l211.882 211.882c18.745 18.745 18.745 49.137 0 67.882L293.823 497.941c-18.745 18.745-49.137 18.745-67.882 0L14.059 286.059A48 48 0 0 1 0 252.118zM112 64c-26.51 0-48 21.49-48 48s21.49 48 48 48 48-21.49 48-48-21.49-48-48-48z" /></symbol><symbol viewBox="0 0 26 28" id="twitter"><path d="M25.312 6.375a10.85 10.85 0 01-2.531 2.609c.016.219.016.438.016.656 0 6.672-5.078 14.359-14.359 14.359-2.859 0-5.516-.828-7.75-2.266.406.047.797.063 1.219.063 2.359 0 4.531-.797 6.266-2.156a5.056 5.056 0 01-4.719-3.5c.313.047.625.078.953.078.453 0 .906-.063 1.328-.172a5.048 5.048 0 01-4.047-4.953v-.063a5.093 5.093 0 002.281.641 5.044 5.044 0 01-2.25-4.203c0-.938.25-1.797.688-2.547a14.344 14.344 0 0010.406 5.281 5.708 5.708 0 01-.125-1.156 5.045 5.045 0 015.047-5.047 5.03 5.03 0 013.687 1.594 9.943 9.943 0 003.203-1.219 5.032 5.032 0 01-2.219 2.781c1.016-.109 2-.391 2.906-.781z" /></symbol><symbol viewBox="0 0 118 118" id="use-secure-passwords">
<path d="M104.165 36.3841C105.12 36.3841 105.893 35.6102 105.893 34.6556V22.6659C105.893 19.252 103.232 16.4414 99.8346 16.2676C79.334 15.2236 68.3162 6.84008 63.5731 1.93571C62.3664 0.687488 60.7423 0 59.0002 0C57.2581 0 55.6339 0.687488 54.427 1.93571C49.6839 6.84008 38.6661 15.2238 18.1653 16.2679C14.7681 16.4414 12.1067 19.252 12.1067 22.6659V70.8569C12.1067 84.7378 19.5746 97.6729 31.596 104.614L51.1522 115.903C53.5729 117.301 56.2862 118 59.0004 118C61.7137 118 64.4279 117.301 66.8479 115.903L86.4043 104.614C98.4258 97.6727 105.894 84.7378 105.894 70.8567V42.7222C105.894 41.7676 105.12 40.9937 104.165 40.9937C103.21 40.9937 102.437 41.7676 102.437 42.7222V70.8569C102.437 83.5067 95.6311 95.2944 84.6762 101.62L65.1193 112.909C61.3445 115.089 56.6558 115.089 52.881 112.909L33.3248 101.62C22.3697 95.2942 15.5642 83.5064 15.5642 70.8567V22.6657C15.5642 21.0937 16.7843 19.7998 18.3418 19.7203C40.0266 18.6161 51.8153 9.60939 56.9126 4.3388C57.4625 3.77024 58.2039 3.45703 59.0004 3.45703C59.7969 3.45703 60.5383 3.77001 61.0882 4.3388C66.1853 9.60916 77.974 18.6159 99.6588 19.7203C101.217 19.8 102.437 21.0939 102.437 22.6657V34.6551C102.436 35.6102 103.21 36.3841 104.165 36.3841Z" />
<path d="M23.1497 58.7435C22.1948 58.7435 21.4211 59.5174 21.4211 60.472V70.8574C21.4211 81.4214 27.104 91.2661 36.2525 96.5503L55.8096 107.84C56.7803 108.399 57.8838 108.695 59.0009 108.695C60.118 108.695 61.2215 108.399 62.1929 107.839L81.7496 96.55C90.8976 91.2661 96.5807 81.4214 96.5807 70.8574V29.0368C96.5807 26.9962 95.0578 25.2667 93.0395 25.0146C77.5357 23.0646 67.3363 17.1743 61.5105 12.5769C60.0334 11.4105 57.9693 11.41 56.492 12.5767C50.6658 17.1745 40.4664 23.0648 24.9641 25.0146C22.9445 25.267 21.4216 26.9962 21.4216 29.0368V52.4051C21.4216 53.3597 22.1955 54.1336 23.1501 54.1336C24.1047 54.1336 24.8786 53.3597 24.8786 52.4051V29.0368C24.8786 28.736 25.0997 28.4816 25.3937 28.4449C41.6872 26.3954 52.463 20.1603 58.634 15.2902C58.8504 15.1197 59.1523 15.1197 59.3685 15.2904C65.5393 20.1603 76.3151 26.3954 92.6097 28.4449C92.9026 28.4816 93.1237 28.736 93.1237 29.0368V70.8574C93.1237 80.1904 88.1029 88.8881 80.0213 93.556L60.4653 104.845C59.5727 105.359 58.4291 105.359 57.5377 104.845L37.9815 93.5562C29.8994 88.8881 24.8786 80.1904 24.8786 70.8574V60.472C24.8782 59.5174 24.1045 58.7435 23.1497 58.7435Z" />
<path d="M40.3748 55.641C38.1379 55.641 36.3184 57.4606 36.3184 59.6973V85.3061C36.3184 87.5428 38.1381 89.3625 40.3748 89.3625H77.6248C79.8617 89.3625 81.6813 87.5428 81.6813 85.3061V72.8094C81.6813 71.8548 80.9074 71.0808 79.9528 71.0808C78.998 71.0808 78.2243 71.8548 78.2243 72.8094V85.3061C78.2243 85.6366 77.9553 85.9053 77.6248 85.9053H40.3748C40.0443 85.9053 39.7754 85.6363 39.7754 85.3061V59.6975C39.7754 59.367 40.0443 59.0983 40.3748 59.0983H77.6248C77.9553 59.0983 78.2243 59.367 78.2243 59.6975V64.7427C78.2243 65.6973 78.9982 66.4712 79.9528 66.4712C80.9076 66.4712 81.6813 65.6973 81.6813 64.7427V59.6975C81.6813 57.7335 80.278 56.0921 78.4215 55.7208V42.9358C78.4215 32.2266 69.7089 23.5142 58.9997 23.5142C48.2905 23.5142 39.5779 32.2268 39.5779 42.9358V47.5919C39.5779 48.5465 40.3518 49.3204 41.3064 49.3204H48.7563C49.7111 49.3204 50.4848 48.5465 50.4848 47.5919V42.9358C50.4848 38.2407 54.3044 34.4211 58.9995 34.4211C63.6946 34.4211 67.5142 38.2409 67.5142 42.9358V55.6413H40.3748V55.641ZM58.9997 30.9636C52.3984 30.9636 47.0278 36.3342 47.0278 42.9355V45.8632H43.0351V42.9355C43.0351 34.1328 50.197 26.9712 58.9997 26.9712C67.8025 26.9712 74.9643 34.1328 74.9643 42.9355V55.641H70.9716V42.9355C70.9716 36.3342 65.601 30.9636 58.9997 30.9636Z" />
<path d="M59.0001 81.9125C59.9549 81.9125 60.7286 81.1386 60.7286 80.184V74.1934C63.0213 73.46 64.6864 71.3095 64.6864 68.7767C64.6864 65.6412 62.1356 63.0903 59.0001 63.0903C55.8646 63.0903 53.3137 65.6412 53.3137 68.7767C53.3137 71.3095 54.9786 73.4603 57.2716 74.1934V80.184C57.2716 81.1386 58.0452 81.9125 59.0001 81.9125ZM59.0001 66.5474C60.2292 66.5474 61.2292 67.5474 61.2292 68.7765C61.2292 70.0056 60.2292 71.0056 59.0001 71.0056C57.771 71.0056 56.771 70.0056 56.771 68.7765C56.771 67.5474 57.771 66.5474 59.0001 66.5474Z" />
</symbol></defs></svg>